<svg width="380" height="61" viewBox="0 0 380 61" fill="none" xmlns="http://www.w3.org/2000/svg">
<path d="M14.58 4.9C11.86 5.86 9.78 7.38 8.34 9.46C6.94 11.5 6.24 13.98 6.24 16.9C6.24 18.18 6.38 19.36 6.66 20.44C6.94 21.48 7.34 22.34 7.86 23.02C5.3 23.02 3.4 22.5 2.16 21.46C0.96 20.38 0.36 18.74 0.36 16.54C0.36 13.74 1.18 11.14 2.82 8.74C4.46 6.3 6.68 4.36 9.48 2.92C12.28 1.48 15.32 0.76 18.6 0.76C19.52 0.76 20.32 0.819999 21 0.939997C21.68 1.06 22.46 1.28 23.34 1.6L30.54 33.7L37.26 1.12H43.08L33.3 46H25.02L18.06 16.24L11.22 46H5.52L14.58 4.9ZM50.0981 12.76C48.7781 12.76 47.6581 12.3 46.7381 11.38C45.8181 10.46 45.3581 9.34 45.3581 8.02C45.3581 6.7 45.8181 5.58 46.7381 4.66C47.6581 3.7 48.7781 3.22 50.0981 3.22C51.4181 3.22 52.5381 3.7 53.4581 4.66C54.4181 5.58 54.8981 6.7 54.8981 8.02C54.8981 9.34 54.4181 10.46 53.4581 11.38C52.5381 12.3 51.4181 12.76 50.0981 12.76ZM46.0181 46.36C44.0981 46.36 42.5381 45.76 41.3381 44.56C40.1781 43.36 39.5981 41.56 39.5981 39.16C39.5981 38.16 39.7581 36.86 40.0781 35.26L44.1581 16H52.7981L48.4781 36.4C48.3181 37 48.2381 37.64 48.2381 38.32C48.2381 39.12 48.4181 39.7 48.7781 40.06C49.1781 40.38 49.8181 40.54 50.6981 40.54C51.8581 40.54 52.9381 40.06 53.9381 39.1C54.9381 38.1 55.6581 36.82 56.0981 35.26H58.6181C57.1381 39.58 55.2381 42.52 52.9181 44.08C50.5981 45.6 48.2981 46.36 46.0181 46.36ZM60.1542 16H68.7942L68.0142 19.72C69.3742 18.52 70.5942 17.6 71.6742 16.96C72.7942 16.32 73.9942 16 75.2742 16C76.5542 16 77.5542 16.44 78.2742 17.32C79.0342 18.2 79.4142 19.26 79.4142 20.5C79.4142 21.66 79.0342 22.68 78.2742 23.56C77.5142 24.44 76.4542 24.88 75.0942 24.88C74.2142 24.88 73.6142 24.68 73.2942 24.28C73.0142 23.84 72.7942 23.22 72.6342 22.42C72.5142 21.9 72.3942 21.52 72.2742 21.28C72.1542 21.04 71.9342 20.92 71.6142 20.92C70.7742 20.92 70.0542 21.1 69.4542 21.46C68.8942 21.78 68.1542 22.36 67.2342 23.2L62.4342 46H53.7942L60.1542 16ZM88.1728 12.7C86.8528 12.7 85.7328 12.24 84.8128 11.32C83.8928 10.4 83.4328 9.28 83.4328 7.96C83.4328 6.64 83.8928 5.52 84.8128 4.6C85.7328 3.64 86.8528 3.16 88.1728 3.16C89.4928 3.16 90.6128 3.64 91.5328 4.6C92.4928 5.52 92.9728 6.64 92.9728 7.96C92.9728 9.28 92.4928 10.4 91.5328 11.32C90.6128 12.24 89.4928 12.7 88.1728 12.7ZM73.2328 61C71.3128 61 69.7128 60.5 68.4328 59.5C67.1528 58.5 66.5128 57.06 66.5128 55.18C66.5128 51.3 69.7928 48.32 76.3528 46.24L82.7728 16H91.4128L85.4728 43.84C87.3928 43.2 88.9328 42.24 90.0928 40.96C91.2528 39.68 92.2328 37.78 93.0328 35.26H95.5528C94.4728 38.82 93.0128 41.44 91.1728 43.12C89.3328 44.76 87.2528 45.88 84.9328 46.48L84.0328 50.8C83.2328 54.68 81.8528 57.34 79.8928 58.78C77.9328 60.26 75.7128 61 73.2328 61ZM71.8528 56.32C72.5328 56.32 73.1928 55.86 73.8328 54.94C74.4728 54.02 74.9728 52.7 75.3328 50.98L75.6928 49.24C71.7728 50.68 69.8128 52.38 69.8128 54.34C69.8128 54.86 69.9928 55.32 70.3528 55.72C70.7128 56.12 71.2128 56.32 71.8528 56.32ZM100.247 46.36C97.9669 46.36 96.0669 45.58 94.5469 44.02C93.0269 42.46 92.2669 40.02 92.2669 36.7C92.2669 33.74 92.8469 30.64 94.0069 27.4C95.2069 24.12 96.9669 21.36 99.2869 19.12C101.647 16.84 104.447 15.7 107.687 15.7C109.327 15.7 110.547 15.98 111.347 16.54C112.147 17.1 112.547 17.84 112.547 18.76V19.18L113.207 16H121.847L117.527 36.4C117.367 37 117.287 37.64 117.287 38.32C117.287 40.04 118.107 40.9 119.747 40.9C120.867 40.9 121.827 40.38 122.627 39.34C123.467 38.3 124.127 36.94 124.607 35.26H127.127C125.647 39.58 123.807 42.52 121.607 44.08C119.447 45.6 117.267 46.36 115.067 46.36C113.387 46.36 112.027 45.9 110.987 44.98C109.987 44.02 109.387 42.64 109.187 40.84C108.027 42.48 106.727 43.82 105.287 44.86C103.887 45.86 102.207 46.36 100.247 46.36ZM104.147 40.54C105.147 40.54 106.127 40.08 107.087 39.16C108.087 38.2 108.767 36.9 109.127 35.26L112.007 21.7C112.007 21.18 111.807 20.68 111.407 20.2C111.007 19.68 110.387 19.42 109.547 19.42C107.947 19.42 106.507 20.36 105.227 22.24C103.947 24.08 102.947 26.32 102.227 28.96C101.507 31.56 101.147 33.86 101.147 35.86C101.147 37.86 101.427 39.14 101.987 39.7C102.587 40.26 103.307 40.54 104.147 40.54ZM145.269 46.36C143.149 46.36 141.609 45.72 140.649 44.44C139.689 43.16 139.209 41.54 139.209 39.58C139.209 38.74 139.309 37.8 139.509 36.76C139.709 35.68 139.909 34.64 140.109 33.64C140.349 32.64 140.509 32 140.589 31.72C140.909 30.32 141.209 28.94 141.489 27.58C141.769 26.22 141.909 25.12 141.909 24.28C141.909 22.24 141.189 21.22 139.749 21.22C138.709 21.22 137.789 21.74 136.989 22.78C136.189 23.78 135.549 25.1 135.069 26.74L130.989 46H122.349L128.709 16H137.349L136.689 19.12C138.689 16.88 141.029 15.76 143.709 15.76C145.749 15.76 147.369 16.32 148.569 17.44C149.769 18.56 150.369 20.26 150.369 22.54C150.369 23.7 150.229 25 149.949 26.44C149.669 27.84 149.269 29.56 148.749 31.6C148.429 32.84 148.129 34.06 147.849 35.26C147.609 36.42 147.489 37.34 147.489 38.02C147.489 38.82 147.669 39.44 148.029 39.88C148.389 40.32 149.009 40.54 149.889 40.54C150.849 40.54 151.509 40.42 151.869 40.18C151.629 42.22 150.889 43.76 149.649 44.8C148.449 45.84 146.989 46.36 145.269 46.36ZM157.635 14.26C158.475 13.38 159.135 12.56 159.615 11.8C160.095 11.04 160.335 10.42 160.335 9.94C160.335 9.66 160.235 9.4 160.035 9.16C159.875 8.92 159.615 8.66 159.255 8.38C158.695 7.94 158.255 7.48 157.935 7C157.615 6.52 157.455 5.88 157.455 5.08C157.455 3.84 157.835 2.84 158.595 2.08C159.355 1.28 160.315 0.879998 161.475 0.879998C162.715 0.879998 163.715 1.28 164.475 2.08C165.275 2.84 165.675 3.84 165.675 5.08C165.675 6.64 165.015 8.36 163.695 10.24C162.415 12.08 160.695 13.72 158.535 15.16L157.635 14.26ZM173.012 46.36C171.092 46.36 169.472 46 168.152 45.28C166.832 44.52 165.852 43.56 165.212 42.4C164.572 41.2 164.252 39.96 164.252 38.68C164.252 37.36 164.572 36.22 165.212 35.26C165.812 34.26 166.552 33.54 167.432 33.1C168.992 30.3 170.352 27.48 171.512 24.64C172.672 21.76 173.772 18.66 174.812 15.34L183.692 14.14C183.892 19.26 184.232 24.8 184.712 30.76C184.912 33.16 185.012 34.9 185.012 35.98C185.012 38.42 184.392 40.42 183.152 41.98C181.912 43.54 180.372 44.66 178.532 45.34C176.732 46.02 174.892 46.36 173.012 46.36ZM171.092 41.62C172.572 41.62 173.812 41.18 174.812 40.3C175.812 39.42 176.312 38 176.312 36.04C176.312 34.84 176.192 33.16 175.952 31C175.552 26.44 175.292 23.38 175.172 21.82C174.212 24.98 172.592 28.76 170.312 33.16C171.232 33.64 171.692 34.34 171.692 35.26C171.692 36.02 171.432 36.7 170.912 37.3C170.432 37.9 169.812 38.2 169.052 38.2C168.212 38.2 167.672 37.94 167.432 37.42C167.432 38.86 167.712 39.92 168.272 40.6C168.872 41.28 169.812 41.62 171.092 41.62ZM224.324 47.02C221.204 47.02 219.644 45.68 219.644 43C219.644 42.12 219.764 41.12 220.004 40C220.284 38.84 220.664 37.36 221.144 35.56C221.704 33.68 222.124 32.08 222.404 30.76C222.684 29.44 222.824 28.26 222.824 27.22C222.824 24.5 221.624 23.14 219.224 23.14C218.584 23.14 217.924 23.22 217.244 23.38L212.444 46H203.804L211.964 7.84L220.844 6.64L217.904 20.5H218.384C219.944 20.5 221.384 19.96 222.704 18.88C224.024 17.8 225.044 16.46 225.764 14.86C226.524 13.22 226.904 11.62 226.904 10.06C226.904 8.22 226.344 6.72 225.224 5.56C224.144 4.36 222.504 3.76 220.304 3.76C217.064 3.76 214.224 4.34 211.784 5.5C209.344 6.66 207.444 8.34 206.084 10.54C204.764 12.74 204.104 15.34 204.104 18.34C204.104 19.82 204.244 20.86 204.524 21.46C204.804 22.02 204.944 22.34 204.944 22.42C202.784 22.42 201.164 21.98 200.084 21.1C199.044 20.18 198.524 18.68 198.524 16.6C198.524 14.04 199.564 11.56 201.644 9.16C203.764 6.72 206.464 4.76 209.744 3.28C213.024 1.76 216.304 0.999996 219.584 0.999996C222.584 0.999996 225.104 1.44 227.144 2.32C229.184 3.2 230.704 4.38 231.704 5.86C232.704 7.3 233.204 8.88 233.204 10.6C233.204 12.48 232.624 14.36 231.464 16.24C230.304 18.12 228.724 19.66 226.724 20.86C228.244 21.3 229.304 22.04 229.904 23.08C230.544 24.08 230.864 25.34 230.864 26.86C230.864 28.02 230.724 29.26 230.444 30.58C230.164 31.86 229.764 33.46 229.244 35.38C228.924 36.62 228.624 37.84 228.344 39.04C228.064 40.24 227.924 41.24 227.924 42.04C227.924 42.96 228.124 43.78 228.524 44.5C228.964 45.22 229.544 45.72 230.264 46C227.824 46.68 225.844 47.02 224.324 47.02ZM242.779 46.36C239.819 46.36 237.519 45.6 235.879 44.08C234.239 42.52 233.419 40.1 233.419 36.82C233.419 34.06 233.959 31.02 235.039 27.7C236.119 24.38 237.879 21.52 240.319 19.12C242.759 16.68 245.859 15.46 249.619 15.46C254.019 15.46 256.219 17.38 256.219 21.22C256.219 23.46 255.579 25.52 254.299 27.4C253.019 29.28 251.319 30.8 249.199 31.96C247.079 33.08 244.819 33.72 242.419 33.88C242.339 35.08 242.299 35.88 242.299 36.28C242.299 38.24 242.639 39.58 243.319 40.3C243.999 40.98 245.099 41.32 246.619 41.32C248.779 41.32 250.619 40.82 252.139 39.82C253.699 38.82 255.399 37.3 257.239 35.26H259.279C254.839 42.66 249.339 46.36 242.779 46.36ZM242.899 31C244.379 30.92 245.779 30.4 247.099 29.44C248.459 28.48 249.539 27.26 250.339 25.78C251.179 24.3 251.599 22.74 251.599 21.1C251.599 19.46 251.099 18.64 250.099 18.64C248.659 18.64 247.239 19.9 245.839 22.42C244.479 24.94 243.499 27.8 242.899 31ZM264.067 46.36C261.747 46.36 259.927 45.78 258.607 44.62C257.327 43.42 256.687 41.64 256.687 39.28C256.687 38.32 256.787 37.36 256.987 36.4L261.307 16H269.947L265.627 36.4C265.427 37.4 265.327 38.12 265.327 38.56C265.327 39.88 266.007 40.54 267.367 40.54C269.207 40.54 270.907 39.38 272.467 37.06C274.067 34.74 275.347 31.98 276.307 28.78C277.267 25.58 277.747 22.82 277.747 20.5C277.667 20.7 277.407 20.86 276.967 20.98C276.527 21.06 276.147 21.1 275.827 21.1C275.147 21.1 274.607 20.78 274.207 20.14C273.847 19.5 273.667 18.8 273.667 18.04C273.667 17.08 273.967 16.3 274.567 15.7C275.207 15.1 276.147 14.8 277.387 14.8C278.707 14.8 279.667 15.3 280.267 16.3C280.867 17.26 281.167 18.5 281.167 20.02C281.167 23.62 280.547 27.48 279.307 31.6C278.067 35.68 276.167 39.16 273.607 42.04C271.047 44.92 267.867 46.36 264.067 46.36ZM292.09 12.76C290.77 12.76 289.65 12.3 288.73 11.38C287.81 10.46 287.35 9.34 287.35 8.02C287.35 6.7 287.81 5.58 288.73 4.66C289.65 3.7 290.77 3.22 292.09 3.22C293.41 3.22 294.53 3.7 295.45 4.66C296.41 5.58 296.89 6.7 296.89 8.02C296.89 9.34 296.41 10.46 295.45 11.38C294.53 12.3 293.41 12.76 292.09 12.76ZM288.01 46.36C286.09 46.36 284.53 45.76 283.33 44.56C282.17 43.36 281.59 41.56 281.59 39.16C281.59 38.16 281.75 36.86 282.07 35.26L286.15 16H294.79L290.47 36.4C290.31 37 290.23 37.64 290.23 38.32C290.23 39.12 290.41 39.7 290.77 40.06C291.17 40.38 291.81 40.54 292.69 40.54C293.85 40.54 294.93 40.06 295.93 39.1C296.93 38.1 297.65 36.82 298.09 35.26H300.61C299.13 39.58 297.23 42.52 294.91 44.08C292.59 45.6 290.29 46.36 288.01 46.36ZM306.646 46.36C303.686 46.36 301.386 45.6 299.746 44.08C298.106 42.52 297.286 40.1 297.286 36.82C297.286 34.06 297.826 31.02 298.906 27.7C299.986 24.38 301.746 21.52 304.186 19.12C306.626 16.68 309.726 15.46 313.486 15.46C317.886 15.46 320.086 17.38 320.086 21.22C320.086 23.46 319.446 25.52 318.166 27.4C316.886 29.28 315.186 30.8 313.066 31.96C310.946 33.08 308.686 33.72 306.286 33.88C306.206 35.08 306.166 35.88 306.166 36.28C306.166 38.24 306.506 39.58 307.186 40.3C307.866 40.98 308.966 41.32 310.486 41.32C312.646 41.32 314.486 40.82 316.006 39.82C317.566 38.82 319.266 37.3 321.106 35.26H323.146C318.706 42.66 313.206 46.36 306.646 46.36ZM306.766 31C308.246 30.92 309.646 30.4 310.966 29.44C312.326 28.48 313.406 27.26 314.206 25.78C315.046 24.3 315.466 22.74 315.466 21.1C315.466 19.46 314.966 18.64 313.966 18.64C312.526 18.64 311.106 19.9 309.706 22.42C308.346 24.94 307.366 27.8 306.766 31ZM327.034 46.36C325.114 46.36 323.554 45.76 322.354 44.56C321.194 43.36 320.614 41.56 320.614 39.16C320.614 38.16 320.774 36.86 321.094 35.26L325.174 16H333.814L329.494 36.4C329.374 36.88 329.314 37.38 329.314 37.9C329.314 39.66 329.914 40.54 331.114 40.54C332.234 40.54 333.194 40.08 333.994 39.16C334.794 38.2 335.434 36.9 335.914 35.26L339.994 16H348.634L344.314 36.4C344.114 37.4 344.014 38.12 344.014 38.56C344.014 39.88 344.694 40.54 346.054 40.54C347.894 40.54 349.594 39.38 351.154 37.06C352.754 34.74 354.034 31.98 354.994 28.78C355.954 25.58 356.434 22.82 356.434 20.5C356.354 20.7 356.094 20.86 355.654 20.98C355.214 21.06 354.834 21.1 354.514 21.1C353.834 21.1 353.294 20.78 352.894 20.14C352.534 19.5 352.354 18.8 352.354 18.04C352.354 17.08 352.654 16.3 353.254 15.7C353.894 15.1 354.834 14.8 356.074 14.8C357.394 14.8 358.354 15.3 358.954 16.3C359.554 17.26 359.854 18.5 359.854 20.02C359.854 23.62 359.234 27.48 357.994 31.6C356.754 35.68 354.854 39.16 352.294 42.04C349.734 44.92 346.554 46.36 342.754 46.36C340.794 46.36 339.194 45.94 337.954 45.1C336.714 44.26 335.914 43 335.554 41.32C333.314 44.68 330.474 46.36 327.034 46.36ZM367.602 46.36C365.682 46.36 364.062 46 362.742 45.28C361.422 44.52 360.442 43.56 359.802 42.4C359.162 41.2 358.842 39.96 358.842 38.68C358.842 37.36 359.162 36.22 359.802 35.26C360.402 34.26 361.142 33.54 362.022 33.1C363.582 30.3 364.942 27.48 366.102 24.64C367.262 21.76 368.362 18.66 369.402 15.34L378.282 14.14C378.482 19.26 378.822 24.8 379.302 30.76C379.502 33.16 379.602 34.9 379.602 35.98C379.602 38.42 378.982 40.42 377.742 41.98C376.502 43.54 374.962 44.66 373.122 45.34C371.322 46.02 369.482 46.36 367.602 46.36ZM365.682 41.62C367.162 41.62 368.402 41.18 369.402 40.3C370.402 39.42 370.902 38 370.902 36.04C370.902 34.84 370.782 33.16 370.542 31C370.142 26.44 369.882 23.38 369.762 21.82C368.802 24.98 367.182 28.76 364.902 33.16C365.822 33.64 366.282 34.34 366.282 35.26C366.282 36.02 366.022 36.7 365.502 37.3C365.022 37.9 364.402 38.2 363.642 38.2C362.802 38.2 362.262 37.94 362.022 37.42C362.022 38.86 362.302 39.92 362.862 40.6C363.462 41.28 364.402 41.62 365.682 41.62Z" fill="#1E1E1E"/>
</svg>
