<?xml version="1.0" standalone="no"?>
<!DOCTYPE svg PUBLIC "-//W3C//DTD SVG 20010904//EN"
 "http://www.w3.org/TR/2001/REC-SVG-20010904/DTD/svg10.dtd">
<svg version="1.0" xmlns="http://www.w3.org/2000/svg"
 width="700.000000pt" height="700.000000pt" viewBox="0 0 700.000000 700.000000"
 preserveAspectRatio="xMidYMid meet">
<metadata>
Created by potrace 1.11, written by Peter Selinger 2001-2013
</metadata>
<g transform="translate(0.000000,700.000000) scale(0.100000,-0.100000)"
fill="#000000" stroke="none">
<path d="M805 6986 c-404 -69 -723 -391 -793 -799 -10 -59 -9 -5332 1 -5386
36 -194 132 -374 274 -516 120 -121 247 -195 428 -252 l90 -28 2651 -3 c2303
-2 2661 0 2735 13 208 36 377 124 525 273 121 121 194 246 251 429 l28 88 2
2655 c2 2224 0 2668 -11 2732 -69 381 -338 674 -716 779 l-85 24 -2655 1
c-2019 1 -2672 -1 -2725 -10z m5447 -94 c97 -27 205 -77 283 -131 119 -82 240
-222 293 -341 48 -106 55 -127 72 -209 17 -82 18 -220 19 -2706 0 -1553 -3
-2636 -9 -2660 -5 -22 -12 -55 -15 -74 -16 -92 -91 -255 -157 -341 -95 -124
-249 -238 -398 -293 -150 -55 21 -52 -2850 -52 l-2655 0 -83 23 c-160 44 -278
110 -398 225 -139 131 -233 310 -262 497 -7 42 -10 969 -10 2670 -1 2106 2
2619 12 2680 31 174 106 324 228 455 130 139 283 226 466 265 84 17 189 18
2737 16 l2650 -2 77 -22z"/>
<path d="M1660 5116 l0 -209 205 6 206 6 -8 -52 c-4 -29 -8 -641 -8 -1362 0
-977 -4 -1323 -12 -1362 -16 -67 -57 -149 -91 -179 -39 -34 -131 -62 -224 -68
-19 -1 -38 -5 -44 -8 -5 -4 -9 -82 -9 -180 l1 -173 617 0 617 -1 0 209 0 208
-202 -3 c-158 -2 -202 0 -201 9 16 78 19 683 10 1831 -2 166 0 302 3 302 4 0
44 -53 90 -117 47 -65 87 -120 90 -123 3 -3 27 -34 54 -70 53 -73 185 -242
446 -574 96 -123 184 -235 195 -250 11 -15 27 -36 35 -46 8 -10 85 -107 170
-216 85 -109 224 -286 308 -393 84 -108 164 -209 176 -226 101 -129 384 -491
421 -537 l46 -58 229 0 230 0 1 1568 c0 862 2 1583 5 1602 19 161 69 242 170
279 47 18 145 35 187 33 11 0 17 7 18 21 3 54 4 323 1 332 -1 7 -214 10 -615
10 l-612 -1 -3 -208 -2 -208 202 3 203 4 -4 -25 c-2 -14 -5 -486 -7 -1050 -3
-564 -5 -1047 -7 -1073 l-2 -48 -137 189 c-128 178 -255 343 -442 578 -45 56
-93 117 -107 135 -31 39 -356 449 -693 874 -126 160 -255 322 -285 360 -30 39
-58 72 -61 75 -3 3 -19 23 -35 45 -17 22 -32 42 -35 45 -3 3 -55 68 -115 145
-60 77 -116 144 -125 149 -9 6 -189 10 -433 10 l-417 1 0 -209z"/>
</g>
</svg>
